# xmcd
#
# Track frame offsets: 
#        150
#        18857
#        54337
#        78913
#        102560
#        121981
#        140755
#        156366
#        174339
#        197201
#
# Disc length: 2979 seconds
#
# Revision: 0
# Processed by: cddbd v1.5.2PL0 Copyright (c) Steve Scherf et al.
# Submitted via: ExactAudioCopy v0.99pb5
#
DISCID=810ba10a
DTITLE=Randy Maez - Feel My Dead Hands Come To Life
DYEAR=2009
DGENRE=Blues
TTITLE0=Guitar Woman
TTITLE1=I'm A Bluesman
TTITLE2=I Won't Cry For Your Love
TTITLE3=Dream With Me Lover Girl
TTITLE4=Things I Do For Love
TTITLE5=My Lady
TTITLE6=Could This Be A Dream
TTITLE7=I Wrote It For You
TTITLE8=Life Keeps Getting Harder
TTITLE9=My Angel Of Blue (In Memory Of Tim Mosher)
EXTD=
EXTT0=
EXTT1=
EXTT2=
EXTT3=
EXTT4=
EXTT5=
EXTT6=
EXTT7=
EXTT8=
EXTT9=
PLAYORDER=
